<?xml version="1.0" standalone="no"?><!DOCTYPE svg PUBLIC "-//W3C//DTD SVG 1.1//EN" "http://www.w3.org/Graphics/SVG/1.1/DTD/svg11.dtd"><svg t="1712309809495" class="icon" viewBox="0 0 1049 1024" version="1.1" xmlns="http://www.w3.org/2000/svg" p-id="4978" xmlns:xlink="http://www.w3.org/1999/xlink" width="65.5625" height="64"><path d="M161.4336 0h624.1024c107.6224 0 161.4336 53.6832 161.4336 161.0752v687.7696c0 107.392-53.8112 161.0752-161.4336 161.0752H161.4336C53.8112 1009.92 0 956.2368 0 848.8448V161.0752C0 53.6832 53.8112 0 161.4336 0z" fill="#01B26A" p-id="4979"></path><path d="M672.1792 352.1024H181.632c-26.88 0-48.64-21.7088-48.64-48.512 0-26.8288 21.76-48.5376 48.64-48.5376h490.5472c26.88 0 48.64 21.7088 48.64 48.5376 0 26.8032-21.76 48.512-48.64 48.512zM485.888 627.84H181.8624c-26.88 0-48.64-21.7344-48.64-48.5376s21.76-48.5376 48.64-48.5376H485.888c26.88 0 48.64 21.76 48.64 48.5376 0 26.8032-21.76 48.5376-48.64 48.5376z" fill="#FFFFFF" p-id="4980"></path><path d="M523.264 761.4208C523.264 906.4448 641.1264 1024 786.432 1024 931.7888 1024 1049.6 906.4448 1049.6 761.4208c0-144.9984-117.8112-262.5536-263.168-262.5536-145.3312 0-263.168 117.5552-263.168 262.5536z" fill="#28D493" fill-opacity=".517" p-id="4981"></path><path d="M786.432 498.944c-128.768-0.1792-238.72 92.6976-259.84 219.4432a262.4512 262.4512 0 0 0 174.72 291.5328h84.0448c89.088 0.1024 161.4336-71.8592 161.6128-160.768V553.5232a261.8368 261.8368 0 0 0-160.512-54.6048z" fill="#00AA69" p-id="4982"></path><path d="M724.0448 918.272a48.64 48.64 0 0 1-44.0832-28.1088 48.4352 48.4352 0 0 1 6.9376-51.7376l71.1936-84.0192v-115.8144c0-26.8032 21.7856-48.5376 48.64-48.5376 26.88 0 48.64 21.7344 48.64 48.5376v133.4528c0 11.4688-4.0704 22.5536-11.4688 31.3088l-82.688 97.6128c-9.216 10.9312-22.8352 17.28-37.1712 17.28z" fill="#FFFFFF" p-id="4983"></path></svg>